<svg width="1644" height="740" viewBox="0 0 1644 740" fill="none" xmlns="http://www.w3.org/2000/svg">
<g filter="url(#filter0_ii_150_142)">
<path d="M57.72 591.33C46.8667 591.33 38.48 588.37 32.56 582.45C26.64 576.283 23.68 567.65 23.68 556.55V358.6C23.68 347.253 26.64 338.62 32.56 332.7C38.48 326.78 46.8667 323.82 57.72 323.82C68.82 323.82 77.2067 326.78 82.88 332.7C88.8 338.62 91.76 347.253 91.76 358.6V427.79H199.43V358.6C199.43 347.253 202.267 338.62 207.94 332.7C213.86 326.78 222.37 323.82 233.47 323.82C244.323 323.82 252.587 326.78 258.26 332.7C264.18 338.62 267.14 347.253 267.14 358.6V556.55C267.14 567.65 264.18 576.283 258.26 582.45C252.587 588.37 244.323 591.33 233.47 591.33C222.37 591.33 213.86 588.37 207.94 582.45C202.267 576.283 199.43 567.65 199.43 556.55V483.66H91.76V556.55C91.76 567.65 88.9233 576.283 83.25 582.45C77.5767 588.37 69.0667 591.33 57.72 591.33Z" fill="url(#paint0_linear_150_142)"/>
</g>
<g filter="url(#filter1_ii_150_142)">
<path d="M409.45 585.95C384.85 585.95 363.4 581.3 345.1 572C326.8 562.7 312.55 549.35 302.35 531.95C292.15 514.55 287.05 494 287.05 470.3C287.05 452.3 289.9 436.25 295.6 422.15C301.3 407.75 309.55 395.6 320.35 385.7C331.15 375.5 344.05 367.85 359.05 362.75C374.05 357.35 390.85 354.65 409.45 354.65C434.05 354.65 455.5 359.3 473.8 368.6C492.1 377.9 506.2 391.25 516.1 408.65C526.3 425.75 531.4 446.3 531.4 470.3C531.4 488 528.55 504.05 522.85 518.45C517.15 532.85 508.9 545.15 498.1 555.35C487.6 565.25 474.7 572.9 459.4 578.3C444.4 583.4 427.75 585.95 409.45 585.95ZM409.45 527C417.55 527 424.75 525.05 431.05 521.15C437.35 516.95 442.15 510.8 445.45 502.7C449.05 494.3 450.85 483.5 450.85 470.3C450.85 450.2 446.95 435.8 439.15 427.1C431.35 418.1 421.45 413.6 409.45 413.6C401.35 413.6 394.15 415.55 387.85 419.45C381.55 423.35 376.6 429.5 373 437.9C369.4 446 367.6 456.8 367.6 470.3C367.6 490.1 371.5 504.5 379.3 513.5C387.1 522.5 397.15 527 409.45 527Z" fill="url(#paint1_linear_150_142)"/>
</g>
<g filter="url(#filter2_ii_150_142)">
<path d="M606.42 591.22C590.953 591.22 578.967 586.967 570.46 578.46C562.34 569.953 558.28 557.967 558.28 542.5V220.6C558.28 204.747 562.727 192.76 571.62 184.64C580.513 176.133 593.08 171.88 609.32 171.88C622.853 171.88 633.487 174.587 641.22 180C649.34 185.027 656.687 193.533 663.26 205.52L787.96 429.4H767.66L891.78 205.52C898.74 193.533 906.087 185.027 913.82 180C921.94 174.587 932.767 171.88 946.3 171.88C961.767 171.88 973.56 176.133 981.68 184.64C990.187 192.76 994.44 204.747 994.44 220.6V542.5C994.44 557.967 990.38 569.953 982.26 578.46C974.14 586.967 962.153 591.22 946.3 591.22C930.833 591.22 918.847 586.967 910.34 578.46C902.22 569.953 898.16 557.967 898.16 542.5V342.98H910.34L816.96 505.38C811.547 513.887 805.747 520.267 799.56 524.52C793.76 528.773 785.833 530.9 775.78 530.9C766.113 530.9 758.187 528.773 752 524.52C745.813 520.267 740.207 513.887 735.18 505.38L641.22 342.4H654.56V542.5C654.56 557.967 650.5 569.953 642.38 578.46C634.26 586.967 622.273 591.22 606.42 591.22Z" fill="url(#paint2_linear_150_142)"/>
</g>
<g filter="url(#filter3_dii_150_142)">
<path d="M1064.2 591.22C1047.96 591.22 1035.39 586.387 1026.5 576.72C1017.61 567.053 1013.16 553.133 1013.16 534.96V351.68C1013.16 333.507 1017.61 319.587 1026.5 309.92C1035.39 300.253 1047.96 295.42 1064.2 295.42C1080.83 295.42 1093.59 300.253 1102.48 309.92C1111.76 319.587 1116.4 333.507 1116.4 351.68V534.96C1116.4 553.133 1111.95 567.053 1103.06 576.72C1094.17 586.387 1081.21 591.22 1064.2 591.22ZM1064.2 254.24C1046.03 254.24 1031.91 249.987 1021.86 241.48C1012.19 232.973 1007.36 220.6 1007.36 204.36C1007.36 188.507 1012.19 176.327 1021.86 167.82C1031.91 159.313 1046.03 155.06 1064.2 155.06C1083.15 155.06 1097.45 159.313 1107.12 167.82C1116.79 176.327 1121.62 188.507 1121.62 204.36C1121.62 220.6 1116.79 232.973 1107.12 241.48C1097.45 249.987 1083.15 254.24 1064.2 254.24Z" fill="url(#paint3_linear_150_142)"/>
</g>
<g filter="url(#filter4_ii_150_142)">
<path d="M1177 585.05C1164.4 585.05 1154.65 581.6 1147.75 574.7C1140.85 567.8 1137.4 557.75 1137.4 544.55V395.6C1137.4 382.7 1140.7 372.8 1147.3 365.9C1154.2 359 1163.95 355.55 1176.55 355.55C1189.15 355.55 1198.75 359 1205.35 365.9C1211.95 372.8 1215.25 382.7 1215.25 395.6V416.75L1210.3 398.3C1217.5 384.2 1227.7 373.4 1240.9 365.9C1254.4 358.4 1269.7 354.65 1286.8 354.65C1304.5 354.65 1319.05 358.1 1330.45 365C1341.85 371.6 1350.4 382.1 1356.1 396.5C1361.8 410.6 1364.65 428.45 1364.65 450.05V544.55C1364.65 557.75 1361.2 567.8 1354.3 574.7C1347.4 581.6 1337.5 585.05 1324.6 585.05C1311.7 585.05 1301.8 581.6 1294.9 574.7C1288 567.8 1284.55 557.75 1284.55 544.55V453.2C1284.55 439.7 1282.15 430.1 1277.35 424.4C1272.85 418.7 1266.1 415.85 1257.1 415.85C1245.1 415.85 1235.5 419.75 1228.3 427.55C1221.1 435.05 1217.5 445.25 1217.5 458.15V544.55C1217.5 571.55 1204 585.05 1177 585.05Z" fill="url(#paint4_linear_150_142)"/>
</g>
<g filter="url(#filter5_ii_150_142)">
<path d="M1495.2 666.95C1478.7 666.95 1463.25 665.75 1448.85 663.35C1434.45 661.25 1422 658.1 1411.5 653.9C1402.8 650.9 1396.65 646.55 1393.05 640.85C1389.45 635.15 1387.8 629.15 1388.1 622.85C1388.4 616.55 1390.05 610.85 1393.05 605.75C1396.35 600.65 1400.7 596.9 1406.1 594.5C1411.5 592.4 1417.5 592.55 1424.1 594.95C1437.3 600.35 1449.3 603.8 1460.1 605.3C1470.9 607.1 1480.05 608 1487.55 608C1505.85 608 1519.5 604.1 1528.5 596.3C1537.8 588.8 1542.45 576.95 1542.45 560.75V532.4H1546.05C1541.55 545 1532.4 555.35 1518.6 563.45C1504.8 571.25 1489.8 575.15 1473.6 575.15C1453.8 575.15 1436.55 570.65 1421.85 561.65C1407.15 552.35 1395.6 539.45 1387.2 522.95C1379.1 506.45 1375.05 487.1 1375.05 464.9C1375.05 448.1 1377.45 432.95 1382.25 419.45C1387.05 405.95 1393.65 394.4 1402.05 384.8C1410.75 375.2 1421.1 367.85 1433.1 362.75C1445.4 357.35 1458.9 354.65 1473.6 354.65C1490.4 354.65 1505.4 358.55 1518.6 366.35C1532.1 374.15 1541.1 384.35 1545.6 396.95L1541.1 415.4V395.6C1541.1 382.7 1544.55 372.8 1551.45 365.9C1558.65 359 1568.55 355.55 1581.15 355.55C1593.75 355.55 1603.35 359 1609.95 365.9C1616.85 372.8 1620.3 382.7 1620.3 395.6V551.3C1620.3 589.7 1609.5 618.5 1587.9 637.7C1566.3 657.2 1535.4 666.95 1495.2 666.95ZM1498.35 516.2C1507.35 516.2 1515 514.25 1521.3 510.35C1527.6 506.15 1532.55 500.3 1536.15 492.8C1539.75 485 1541.55 475.7 1541.55 464.9C1541.55 448.7 1537.65 436.1 1529.85 427.1C1522.05 418.1 1511.55 413.6 1498.35 413.6C1489.95 413.6 1482.45 415.7 1475.85 419.9C1469.25 423.8 1464.15 429.65 1460.55 437.45C1457.25 444.95 1455.6 454.1 1455.6 464.9C1455.6 481.1 1459.5 493.7 1467.3 502.7C1475.1 511.7 1485.45 516.2 1498.35 516.2Z" fill="url(#paint5_linear_150_142)"/>
</g>
<path d="M75.6 245.16C76.08 250.56 76.08 259.2 76.08 263.52C80.76 263.4 99.84 258.24 107.76 256.8C108.24 247.92 108.6 239.04 109.08 230.88C109.32 227.16 115.56 228.24 115.56 231.48C115.44 238.44 114.96 246.6 114.48 254.52C120.6 253.32 123.48 252.48 130.2 251.04C131.76 250.68 133.68 251.28 133.44 252.84C133.32 255 132.48 256.32 129.6 257.28C124.2 258.96 122.16 259.56 116.64 261.12C115.32 261.48 114.36 262.68 114 264.12C113.76 267.72 113.64 271.2 113.64 274.32C113.52 281.4 106.08 280.32 106.56 275.04C106.92 271.08 107.28 266.88 107.4 262.8C99.24 264.36 83.64 268.8 76.92 269.52C71.64 270.24 69.96 268.2 69.72 264.24C69.6 258.84 69.6 249.96 69.24 244.08C69 240.24 71.64 239.52 74.52 239.28C82.56 238.56 88.92 236.52 94.8 235.2C98.16 234.6 99.48 239.52 95.88 240.72C90.72 242.52 81.12 244.56 75.6 245.16ZM92.4 279.48C92.88 274.8 98.4 275.64 98.16 279.96C97.92 284.88 97.68 289.56 97.68 293.28C105.12 292.08 112.92 290.28 120.96 289.44C123.24 289.2 124.56 290.76 124.56 292.44C124.56 294.12 123.48 295.2 120.24 295.68C112.56 297.12 105.12 298.44 96.72 299.64C93.36 300.12 90.72 297.48 90.84 294.48C90.84 289.44 91.68 284.52 92.4 279.48ZM150.313 219.6C158.833 217.56 163.993 216.48 172.753 215.28C174.673 215.04 178.513 215.76 178.273 219.48C177.313 229.68 176.353 237.72 175.393 245.88C174.913 250.92 169.273 250.68 169.393 246.48C170.113 235.92 171.193 229.44 171.553 221.64C163.993 222.36 157.393 224.28 149.953 225.36C144.673 225.96 144.193 221.04 150.313 219.6ZM142.273 258.96C146.113 258.36 149.833 257.76 153.553 257.28C153.913 251.52 154.393 245.28 154.873 239.64C155.233 236.16 160.753 235.2 160.753 240.12C160.633 245.28 160.153 251.16 160.033 256.44C166.393 255.72 172.753 255.24 179.833 254.52C184.393 254.16 185.473 259.8 180.913 260.16C167.833 261.6 156.673 262.44 143.233 264.96C139.393 265.56 138.913 259.68 142.273 258.96ZM145.633 281.64C145.273 279.36 147.793 277.68 150.073 277.08C157.873 274.44 167.713 272.64 172.393 272.4C174.913 272.28 178.753 275.28 178.513 277.68C177.913 282.6 176.113 291.12 174.073 292.56C169.153 296.04 160.153 299.16 156.673 301.32C155.593 302.04 154.873 303.96 155.353 305.64C155.713 306.96 156.793 307.44 158.353 307.32C162.433 306.96 166.633 305.64 170.713 304.32C172.633 303.6 175.873 301.44 177.913 301.08C179.353 300.84 181.153 301.8 181.753 303.24C182.113 304.92 182.233 307.2 177.193 308.76C170.713 310.92 165.673 312.6 158.713 313.2C152.113 313.8 148.633 309.84 148.513 304.68C148.393 300.96 150.193 297.84 152.833 296.4C159.793 292.68 163.753 291.72 169.633 288C170.713 285.12 171.433 281.64 172.033 278.76C164.833 279.24 160.153 280.92 152.953 282.96C150.553 283.68 146.113 284.16 145.633 281.64ZM201.433 267.6C201.073 265.2 200.833 262.68 203.353 261C207.793 255.48 215.593 252.84 220.033 253.92C223.273 254.76 225.793 258.6 225.073 261.96C223.753 269.4 217.153 278.64 210.073 278.4C205.393 278.28 200.593 273.72 201.433 267.6ZM208.633 268.32C208.633 269.76 208.513 272.04 210.673 272.16C213.313 272.4 217.513 266.88 218.473 263.4C219.073 261.6 217.993 259.8 216.553 260.04C212.233 260.4 208.513 266.16 208.633 268.32ZM241.033 243.36C241.273 239.64 247.393 240.72 247.393 244.08C247.273 257.04 245.833 274.08 245.713 286.56C245.593 293.76 238.513 292.68 238.993 287.4C239.953 272.4 240.433 257.28 241.033 243.36ZM302.332 267.6C301.972 265.2 301.732 262.68 304.252 261C308.692 255.48 316.492 252.84 320.932 253.92C324.172 254.76 326.692 258.6 325.972 261.96C324.652 269.4 318.052 278.64 310.972 278.4C306.292 278.28 301.492 273.72 302.332 267.6ZM309.532 268.32C309.532 269.76 309.412 272.04 311.572 272.16C314.212 272.4 318.412 266.88 319.372 263.4C319.972 261.6 318.892 259.8 317.452 260.04C313.132 260.4 309.412 266.16 309.532 268.32ZM341.932 243.36C342.172 239.64 348.292 240.72 348.292 244.08C348.172 257.04 346.732 274.08 346.612 286.56C346.492 293.76 339.412 292.68 339.892 287.4C340.852 272.4 341.332 257.28 341.932 243.36ZM372.115 276.36C368.155 276.36 364.315 273.12 364.435 268.44C364.915 258.12 373.075 251.4 380.155 251.76C384.595 251.88 389.635 255 389.635 259.68C395.275 258.36 401.275 256.56 407.155 255.24C407.995 255.12 410.275 254.28 410.635 253.32L411.355 241.8C411.475 236.52 418.675 236.64 418.435 241.8C417.475 254.4 415.675 279.72 414.955 292.56C414.835 296.52 407.995 297.12 408.235 292.68C408.715 283.68 409.435 272.88 410.155 261.48C403.435 262.32 394.795 264.96 388.675 265.44C388.435 265.56 388.435 265.56 388.315 265.56C385.435 271.92 378.715 276.6 372.115 276.36ZM371.035 267.48C371.035 268.44 371.515 269.76 373.195 269.76C376.795 270 382.555 266.28 382.795 261.48C382.915 259.2 381.235 258 379.675 258C375.355 257.88 371.035 263.4 371.035 267.48ZM458.073 239.76C464.193 243.48 468.513 245.88 474.153 249.36C477.273 251.28 474.873 256.56 470.793 254.4C464.193 250.68 458.913 247.2 453.513 244.92C449.433 249.36 445.233 253.68 441.273 257.16C438.033 260.04 433.833 256.08 437.193 252.6C446.913 243.24 452.913 236.52 458.193 230.64C453.513 231.36 445.833 232.32 440.433 233.52C434.913 234.72 434.553 228.12 439.233 227.52C447.393 226.68 462.873 223.68 464.193 224.4C466.233 225.36 468.273 228.12 467.073 229.44C464.193 232.68 461.193 236.16 458.073 239.76ZM461.313 268.44C460.833 273.24 460.353 277.32 460.113 282.48C459.753 287.4 454.833 287.28 454.473 283.68C454.233 278.28 454.113 274.2 453.873 269.28C447.393 270 441.033 270.84 434.913 272.04C431.073 272.76 430.593 266.64 433.953 266.04C447.153 263.76 462.153 262.56 475.473 261.36C480.033 261.12 481.113 266.52 476.553 266.88C471.633 267.48 466.593 267.96 461.313 268.44ZM440.793 279.72C441.273 277.2 443.313 275.76 444.993 276.24C446.433 276.72 446.793 278.76 446.793 280.08C446.433 285.84 445.953 291.6 445.953 297C453.393 295.44 461.313 294.12 469.353 292.92C471.513 292.68 473.913 293.4 473.913 295.8C473.913 297.36 472.953 298.56 469.833 299.16C462.033 300.6 453.393 302.16 444.873 303.36C441.753 303.72 438.993 301.2 439.233 298.2C439.593 292.44 439.833 285.6 440.793 279.72Z" fill="#03483E"/>
<path d="M1175.24 249.96C1178.36 245.16 1183.04 248.64 1180.76 252.84C1179.08 255.96 1177.28 259.08 1175.48 262.08C1180.4 269.4 1184.12 275.52 1188.68 282.36C1190.84 285.96 1186.04 289.08 1184 286.2C1179.8 280.32 1176.08 274.08 1171.88 268.2C1168.88 273.24 1165.76 278.16 1162.76 282.96C1159.4 287.88 1155.2 283.92 1157.12 280.56C1163.72 268.8 1169.48 260.28 1175.24 249.96ZM1200.68 241.8C1200.8 238.08 1206.8 239.16 1206.68 242.52C1206.56 249.24 1206.2 257.52 1205.72 265.68C1209.8 263.64 1214 263.04 1219.04 260.64C1219.4 254.64 1219.76 249.12 1220 244.68C1220.48 240.96 1226.36 242.04 1226.24 245.4C1225.76 258.12 1225.16 277.32 1224.44 289.92C1223.96 295.68 1217.24 295.44 1217.48 290.64C1217.72 283.8 1218.2 275.88 1218.68 268.08C1214.96 268.44 1209.68 270.12 1207.76 271.44C1206.8 272.04 1205.72 273.12 1205.24 274.32C1205 278.76 1204.76 282.96 1204.76 286.56C1204.52 292.8 1197.32 292.8 1197.68 286.8C1198.52 272.16 1199.84 255.72 1200.68 241.8ZM1248.76 232.8C1253.92 230.76 1258.96 229.8 1264.36 228.96C1267.84 228.6 1271.92 230.16 1272.88 233.28C1273.48 235.2 1273.84 237.72 1273.84 240C1273.72 243.84 1271.2 246 1267.72 248.4C1264 250.92 1260.28 253.44 1255.84 256.44C1253.8 257.76 1252.84 259.44 1253.44 260.52C1254.16 262.08 1257.4 261.6 1258.84 261.36C1265.44 260.28 1269.04 259.92 1273.36 258.48C1277.44 257.16 1280.8 257.52 1281.16 260.76C1281.4 262.92 1280.56 264.36 1275.88 264.96C1272.76 265.32 1269.76 265.8 1266.88 266.28C1267 271.56 1266.88 278.28 1266.88 283.56C1274.56 282.6 1282.12 281.76 1288.72 281.28C1293.16 281.04 1294.12 285.96 1289.68 286.56C1276.6 288.6 1258.36 291.24 1244.68 293.52C1240.72 294.24 1240.6 287.4 1243.96 286.8C1248.88 286.08 1254.4 285.24 1260.28 284.4C1260.4 279.36 1260.64 272.64 1261 267.24C1260.4 267.36 1259.92 267.48 1259.44 267.48C1256.08 267.96 1247.8 268.32 1246.24 262.92C1245.52 260.04 1246.84 255.96 1249.72 253.44C1254.4 249.48 1260.52 245.76 1265.44 242.16C1266.04 241.68 1267 240.84 1267.12 239.64C1267.12 238.8 1266.88 237.48 1266.64 236.4C1266.4 235.32 1265.44 234.96 1264.24 235.08C1259.8 235.56 1255.84 237.24 1250.8 238.32C1246 239.4 1244.8 234.36 1248.76 232.8ZM1320.04 254.04C1316.08 254.04 1312.24 250.8 1312.36 246.12C1312.84 235.68 1321 228.96 1328.08 229.32C1332.88 229.44 1338.28 233.04 1337.56 238.32C1336.48 247.08 1328.2 254.16 1320.04 254.04ZM1318.96 245.16C1318.96 246.12 1319.44 247.44 1321.12 247.44C1324.72 247.56 1330.48 243.96 1330.72 239.04C1330.84 236.76 1329.16 235.56 1327.6 235.56C1323.28 235.44 1318.96 240.96 1318.96 245.16ZM1330.48 268.32C1330.12 273.24 1329.64 277.32 1329.28 282.48C1329.04 287.4 1324 287.28 1323.76 283.68C1323.4 278.28 1323.28 274.2 1323.16 269.16C1317.76 269.88 1312.36 270.72 1306.48 271.8C1302.64 272.4 1302.16 266.4 1305.52 265.68C1318.72 263.52 1329.76 262.56 1343.08 261.36C1347.64 261.12 1348.72 266.52 1344.16 266.88C1339.36 267.48 1334.92 267.84 1330.48 268.32ZM1309.72 279.72C1310.2 277.2 1312.24 275.76 1313.92 276.24C1315.36 276.72 1315.72 278.76 1315.72 280.08C1315.36 285.84 1314.88 291.6 1314.88 297C1322.32 295.44 1330.24 294.12 1338.28 292.92C1340.44 292.68 1342.84 293.4 1342.84 295.8C1342.84 297.36 1341.88 298.56 1338.76 299.16C1330.96 300.6 1322.32 302.16 1313.8 303.36C1310.68 303.72 1307.92 301.2 1308.16 298.2C1308.52 292.44 1308.76 285.6 1309.72 279.72ZM1406.96 241.8C1411.88 240.72 1420.64 239.76 1429.88 238.8C1431.92 238.68 1435.52 239.4 1435.4 243.12C1434.8 253.8 1434.56 264.6 1433.72 274.2C1433.24 279.24 1427.48 278.88 1427.6 274.68C1427.96 262.56 1428.56 255 1428.44 245.28C1421 245.64 1414.04 246.96 1406.6 248.04C1401.32 248.64 1400.84 243.12 1406.96 241.8ZM1401.2 287.64C1404.32 287.04 1407.32 286.68 1410.44 286.2C1410.92 279.6 1411.76 266.16 1412.48 260.52C1413.08 257.04 1417.88 255.84 1417.88 260.64C1417.76 265.92 1417.64 278.52 1417.64 285.24C1424.36 284.4 1431.2 283.92 1438.64 283.2C1443.08 282.84 1444.28 288.48 1439.84 288.84C1426.64 290.28 1415.36 291.12 1401.92 293.76C1398.08 294.36 1397.84 288.24 1401.2 287.64ZM1465.76 237.12C1464.68 230.76 1463.48 225.48 1462.04 218.28C1461.2 214.8 1466.84 212.16 1467.8 215.88C1469.36 222.84 1471.04 229.44 1472.72 235.92C1476.44 235.2 1480.04 234.48 1483.88 233.4C1487.84 232.32 1489.28 233.52 1489.52 235.56C1489.76 236.88 1489.28 239.28 1484.6 239.88C1473.2 241.8 1459.4 243.96 1451.96 245.28C1447.28 245.88 1446.92 239.52 1451.48 239.04C1456.64 238.32 1461.32 237.72 1465.76 237.12ZM1475.12 249.48C1479.56 249.6 1483.04 251.88 1482.44 258.72C1481.6 267.12 1471.04 276 1463.72 275.04C1460.36 274.68 1458.08 272.04 1458.08 268.44C1458.2 261 1466.48 249.24 1475.12 249.48ZM1473.44 256.08C1469.84 256.8 1464.8 263.04 1464.8 266.64C1464.8 267.48 1464.8 268.32 1466 268.32C1469.48 268.32 1475.36 261.96 1475.84 258.36C1476.08 256.2 1474.64 255.84 1473.44 256.08ZM1500.44 232.32C1500.68 228.6 1506.92 229.68 1506.92 232.92C1506.8 236.52 1506.68 240.24 1506.44 244.2C1512.08 243.12 1514.24 242.64 1520.72 241.2C1522.28 240.72 1523.84 241.44 1523.84 243C1523.84 244.56 1522.88 245.88 1520 246.84C1515.56 248.28 1510.16 249.84 1506.08 250.92C1505.84 253.92 1505.72 257.04 1505.6 259.92C1511.24 258.84 1515.2 257.76 1521.56 256.44C1523.24 256.08 1524.8 256.68 1524.8 258.36C1524.8 259.92 1523.84 261.24 1520.96 262.08C1516.16 263.64 1509.56 265.32 1505.24 266.64C1505.12 269.4 1505 271.92 1505 274.44C1504.88 275.28 1504.88 276 1504.64 276.6C1507.28 278.16 1509.2 280.8 1508.84 284.04C1507.88 292.44 1498.4 301.68 1489.88 301.08C1485.92 300.84 1481.96 297.84 1482.32 293.16C1482.68 283.32 1491.08 275.52 1498.04 275.04C1499.36 260.52 1499.72 246 1500.44 232.32ZM1488.92 292.08C1488.92 293.16 1489.4 294.48 1490.96 294.48C1494.68 294.6 1501.52 289.56 1502 284.76C1502.12 282.48 1500.2 281.28 1498.64 281.28C1494.44 281.16 1488.8 288 1488.92 292.08ZM1530.75 236.16C1529.91 234.24 1531.11 232.32 1534.71 231.48C1541.43 230.04 1550.55 228.12 1552.11 228.36C1555.11 228.84 1557.87 232.2 1557.63 234.12C1556.91 240 1555.59 254.16 1555.23 259.8C1555.23 261.24 1553.91 262.68 1551.99 262.8C1550.79 262.8 1548.99 261.84 1548.99 260.04C1549.11 250.92 1549.71 242.88 1550.43 234.72C1545.75 235.2 1542.03 236.4 1535.79 237.84C1533.87 238.2 1531.35 237.72 1530.75 236.16ZM1576.23 225.36C1576.35 221.64 1582.71 222.72 1582.59 225.96C1582.47 238.92 1581.51 251.16 1580.79 263.64C1580.79 264.48 1580.55 265.2 1580.31 265.68C1581.87 266.76 1583.07 268.44 1582.95 269.76C1582.35 274.68 1580.31 281.88 1578.51 283.44C1573.35 287.4 1564.47 290.04 1560.99 292.32C1559.91 292.92 1559.19 294.72 1559.67 296.4C1560.03 297.72 1561.35 298.32 1562.91 298.08C1568.07 297.36 1570.95 296.52 1575.03 295.08C1577.43 294.24 1580.19 292.2 1582.23 291.84C1583.67 291.6 1585.47 292.56 1586.07 294C1586.43 295.68 1586.79 298.32 1581.63 299.4C1574.55 301.44 1569.99 303.48 1563.15 304.2C1557.15 304.68 1553.31 301.32 1552.59 297C1551.99 293.4 1553.31 289.44 1555.95 288C1561.71 284.52 1568.07 282.72 1573.95 279C1575.27 276.24 1575.75 273.72 1576.35 270.84C1569.15 271.32 1564.47 273 1557.27 275.04C1554.87 275.76 1550.43 276.24 1549.95 273.72C1549.59 271.44 1552.11 269.76 1554.39 269.16C1560.75 267 1568.55 265.44 1573.71 264.84V264C1575.03 249.48 1575.51 239.16 1576.23 225.36Z" fill="#03483E"/>
<defs>
<filter id="filter0_ii_150_142" x="14.6797" y="323.82" width="280.461" height="287.51" filterUnits="userSpaceOnUse" color-interpolation-filters="sRGB">
<feFlood flood-opacity="0" result="BackgroundImageFix"/>
<feBlend mode="normal" in="SourceGraphic" in2="BackgroundImageFix" result="shape"/>
<feColorMatrix in="SourceAlpha" type="matrix" values="0 0 0 0 0 0 0 0 0 0 0 0 0 0 0 0 0 0 127 0" result="hardAlpha"/>
<feOffset dx="50"/>
<feGaussianBlur stdDeviation="14"/>
<feComposite in2="hardAlpha" operator="arithmetic" k2="-1" k3="1"/>
<feColorMatrix type="matrix" values="0 0 0 0 0 0 0 0 0 0 0 0 0 0 0 0 0 0 0.35 0"/>
<feBlend mode="normal" in2="shape" result="effect1_innerShadow_150_142"/>
<feColorMatrix in="SourceAlpha" type="matrix" values="0 0 0 0 0 0 0 0 0 0 0 0 0 0 0 0 0 0 127 0" result="hardAlpha"/>
<feOffset dx="-9" dy="20"/>
<feGaussianBlur stdDeviation="17"/>
<feComposite in2="hardAlpha" operator="arithmetic" k2="-1" k3="1"/>
<feColorMatrix type="matrix" values="0 0 0 0 1 0 0 0 0 1 0 0 0 0 1 0 0 0 0.69 0"/>
<feBlend mode="normal" in2="effect1_innerShadow_150_142" result="effect2_innerShadow_150_142"/>
</filter>
<filter id="filter1_ii_150_142" x="278.051" y="354.65" width="281.35" height="251.3" filterUnits="userSpaceOnUse" color-interpolation-filters="sRGB">
<feFlood flood-opacity="0" result="BackgroundImageFix"/>
<feBlend mode="normal" in="SourceGraphic" in2="BackgroundImageFix" result="shape"/>
<feColorMatrix in="SourceAlpha" type="matrix" values="0 0 0 0 0 0 0 0 0 0 0 0 0 0 0 0 0 0 127 0" result="hardAlpha"/>
<feOffset dx="50"/>
<feGaussianBlur stdDeviation="14"/>
<feComposite in2="hardAlpha" operator="arithmetic" k2="-1" k3="1"/>
<feColorMatrix type="matrix" values="0 0 0 0 0 0 0 0 0 0 0 0 0 0 0 0 0 0 0.35 0"/>
<feBlend mode="normal" in2="shape" result="effect1_innerShadow_150_142"/>
<feColorMatrix in="SourceAlpha" type="matrix" values="0 0 0 0 0 0 0 0 0 0 0 0 0 0 0 0 0 0 127 0" result="hardAlpha"/>
<feOffset dx="-9" dy="20"/>
<feGaussianBlur stdDeviation="17"/>
<feComposite in2="hardAlpha" operator="arithmetic" k2="-1" k3="1"/>
<feColorMatrix type="matrix" values="0 0 0 0 1 0 0 0 0 1 0 0 0 0 1 0 0 0 0.69 0"/>
<feBlend mode="normal" in2="effect1_innerShadow_150_142" result="effect2_innerShadow_150_142"/>
</filter>
<filter id="filter2_ii_150_142" x="549.279" y="171.88" width="473.16" height="439.34" filterUnits="userSpaceOnUse" color-interpolation-filters="sRGB">
<feFlood flood-opacity="0" result="BackgroundImageFix"/>
<feBlend mode="normal" in="SourceGraphic" in2="BackgroundImageFix" result="shape"/>
<feColorMatrix in="SourceAlpha" type="matrix" values="0 0 0 0 0 0 0 0 0 0 0 0 0 0 0 0 0 0 127 0" result="hardAlpha"/>
<feOffset dx="50"/>
<feGaussianBlur stdDeviation="14"/>
<feComposite in2="hardAlpha" operator="arithmetic" k2="-1" k3="1"/>
<feColorMatrix type="matrix" values="0 0 0 0 0 0 0 0 0 0 0 0 0 0 0 0 0 0 0.35 0"/>
<feBlend mode="normal" in2="shape" result="effect1_innerShadow_150_142"/>
<feColorMatrix in="SourceAlpha" type="matrix" values="0 0 0 0 0 0 0 0 0 0 0 0 0 0 0 0 0 0 127 0" result="hardAlpha"/>
<feOffset dx="-9" dy="20"/>
<feGaussianBlur stdDeviation="17"/>
<feComposite in2="hardAlpha" operator="arithmetic" k2="-1" k3="1"/>
<feColorMatrix type="matrix" values="0 0 0 0 1 0 0 0 0 1 0 0 0 0 1 0 0 0 0.69 0"/>
<feBlend mode="normal" in2="effect1_innerShadow_150_142" result="effect2_innerShadow_150_142"/>
</filter>
<filter id="filter3_dii_150_142" x="998.359" y="155.06" width="151.26" height="456.16" filterUnits="userSpaceOnUse" color-interpolation-filters="sRGB">
<feFlood flood-opacity="0" result="BackgroundImageFix"/>
<feColorMatrix in="SourceAlpha" type="matrix" values="0 0 0 0 0 0 0 0 0 0 0 0 0 0 0 0 0 0 127 0" result="hardAlpha"/>
<feOffset dy="4"/>
<feGaussianBlur stdDeviation="2"/>
<feComposite in2="hardAlpha" operator="out"/>
<feColorMatrix type="matrix" values="0 0 0 0 0 0 0 0 0 0 0 0 0 0 0 0 0 0 0.25 0"/>
<feBlend mode="normal" in2="BackgroundImageFix" result="effect1_dropShadow_150_142"/>
<feBlend mode="normal" in="SourceGraphic" in2="effect1_dropShadow_150_142" result="shape"/>
<feColorMatrix in="SourceAlpha" type="matrix" values="0 0 0 0 0 0 0 0 0 0 0 0 0 0 0 0 0 0 127 0" result="hardAlpha"/>
<feOffset dx="50"/>
<feGaussianBlur stdDeviation="14"/>
<feComposite in2="hardAlpha" operator="arithmetic" k2="-1" k3="1"/>
<feColorMatrix type="matrix" values="0 0 0 0 0 0 0 0 0 0 0 0 0 0 0 0 0 0 0.35 0"/>
<feBlend mode="normal" in2="shape" result="effect2_innerShadow_150_142"/>
<feColorMatrix in="SourceAlpha" type="matrix" values="0 0 0 0 0 0 0 0 0 0 0 0 0 0 0 0 0 0 127 0" result="hardAlpha"/>
<feOffset dx="-9" dy="20"/>
<feGaussianBlur stdDeviation="17"/>
<feComposite in2="hardAlpha" operator="arithmetic" k2="-1" k3="1"/>
<feColorMatrix type="matrix" values="0 0 0 0 1 0 0 0 0 1 0 0 0 0 1 0 0 0 0.69 0"/>
<feBlend mode="normal" in2="effect2_innerShadow_150_142" result="effect3_innerShadow_150_142"/>
</filter>
<filter id="filter4_ii_150_142" x="1128.4" y="354.65" width="264.25" height="250.4" filterUnits="userSpaceOnUse" color-interpolation-filters="sRGB">
<feFlood flood-opacity="0" result="BackgroundImageFix"/>
<feBlend mode="normal" in="SourceGraphic" in2="BackgroundImageFix" result="shape"/>
<feColorMatrix in="SourceAlpha" type="matrix" values="0 0 0 0 0 0 0 0 0 0 0 0 0 0 0 0 0 0 127 0" result="hardAlpha"/>
<feOffset dx="50"/>
<feGaussianBlur stdDeviation="14"/>
<feComposite in2="hardAlpha" operator="arithmetic" k2="-1" k3="1"/>
<feColorMatrix type="matrix" values="0 0 0 0 0 0 0 0 0 0 0 0 0 0 0 0 0 0 0.35 0"/>
<feBlend mode="normal" in2="shape" result="effect1_innerShadow_150_142"/>
<feColorMatrix in="SourceAlpha" type="matrix" values="0 0 0 0 0 0 0 0 0 0 0 0 0 0 0 0 0 0 127 0" result="hardAlpha"/>
<feOffset dx="-9" dy="20"/>
<feGaussianBlur stdDeviation="17"/>
<feComposite in2="hardAlpha" operator="arithmetic" k2="-1" k3="1"/>
<feColorMatrix type="matrix" values="0 0 0 0 1 0 0 0 0 1 0 0 0 0 1 0 0 0 0.69 0"/>
<feBlend mode="normal" in2="effect1_innerShadow_150_142" result="effect2_innerShadow_150_142"/>
</filter>
<filter id="filter5_ii_150_142" x="1366.05" y="354.65" width="282.25" height="332.3" filterUnits="userSpaceOnUse" color-interpolation-filters="sRGB">
<feFlood flood-opacity="0" result="BackgroundImageFix"/>
<feBlend mode="normal" in="SourceGraphic" in2="BackgroundImageFix" result="shape"/>
<feColorMatrix in="SourceAlpha" type="matrix" values="0 0 0 0 0 0 0 0 0 0 0 0 0 0 0 0 0 0 127 0" result="hardAlpha"/>
<feOffset dx="50"/>
<feGaussianBlur stdDeviation="14"/>
<feComposite in2="hardAlpha" operator="arithmetic" k2="-1" k3="1"/>
<feColorMatrix type="matrix" values="0 0 0 0 0 0 0 0 0 0 0 0 0 0 0 0 0 0 0.35 0"/>
<feBlend mode="normal" in2="shape" result="effect1_innerShadow_150_142"/>
<feColorMatrix in="SourceAlpha" type="matrix" values="0 0 0 0 0 0 0 0 0 0 0 0 0 0 0 0 0 0 127 0" result="hardAlpha"/>
<feOffset dx="-9" dy="20"/>
<feGaussianBlur stdDeviation="17"/>
<feComposite in2="hardAlpha" operator="arithmetic" k2="-1" k3="1"/>
<feColorMatrix type="matrix" values="0 0 0 0 1 0 0 0 0 1 0 0 0 0 1 0 0 0 0.69 0"/>
<feBlend mode="normal" in2="effect1_innerShadow_150_142" result="effect2_innerShadow_150_142"/>
</filter>
<linearGradient id="paint0_linear_150_142" x1="149.5" y1="324.369" x2="149.5" y2="614.263" gradientUnits="userSpaceOnUse">
<stop stop-color="#6ADB86"/>
<stop offset="0.5" stop-color="#BDEA6A"/>
<stop offset="1" stop-color="#4DD7C1"/>
</linearGradient>
<linearGradient id="paint1_linear_150_142" x1="409.5" y1="254.834" x2="409.5" y2="593.227" gradientUnits="userSpaceOnUse">
<stop stop-color="#6ADB86"/>
<stop offset="0.5" stop-color="#BDEA6A"/>
<stop offset="1" stop-color="#4DD7C1"/>
</linearGradient>
<linearGradient id="paint2_linear_150_142" x1="764" y1="155.272" x2="764" y2="563.108" gradientUnits="userSpaceOnUse">
<stop stop-color="#57FF9A"/>
<stop offset="0.298077" stop-color="#43CE80"/>
<stop offset="0.6" stop-color="#00C6A9"/>
</linearGradient>
<linearGradient id="paint3_linear_150_142" x1="1061" y1="155.272" x2="1061" y2="563.108" gradientUnits="userSpaceOnUse">
<stop stop-color="#57FF9A"/>
<stop offset="0.3" stop-color="#43CE80"/>
<stop offset="0.6" stop-color="#00C6A9"/>
</linearGradient>
<linearGradient id="paint4_linear_150_142" x1="1250.5" y1="254.834" x2="1250.5" y2="593.227" gradientUnits="userSpaceOnUse">
<stop offset="0.149038" stop-color="#BDEA6A"/>
<stop offset="0.75" stop-color="#6ADB86"/>
<stop offset="1" stop-color="#4DD7C1"/>
</linearGradient>
<linearGradient id="paint5_linear_150_142" x1="1503" y1="254.834" x2="1503" y2="593.227" gradientUnits="userSpaceOnUse">
<stop offset="0.15" stop-color="#BDEA6A"/>
<stop offset="0.75" stop-color="#6ADB86"/>
<stop offset="1" stop-color="#4DD7C1"/>
</linearGradient>
</defs>
</svg>
